<svg width="213" height="80" viewBox="0 0 213 80" fill="none" xmlns="http://www.w3.org/2000/svg">
<path fill-rule="evenodd" clip-rule="evenodd" d="M62.8943 7.46691C59.1335 6.48489 55.1405 5.9565 51.0027 5.9565C28.5917 5.9565 10.4239 21.4574 10.4239 40.5788C10.4239 59.7002 28.5917 75.2011 51.0027 75.2011C53.6483 75.2011 56.2348 74.9851 58.7392 74.5726C53.0888 77.6633 46.6047 79.4204 39.7102 79.4204C17.7789 79.4204 0 61.6415 0 39.7102C0 17.7789 17.7789 0 39.7102 0C48.3638 0 56.3708 2.768 62.8943 7.46691Z" fill="url(#paint0_linear_434_295)"/>
<path fill-rule="evenodd" clip-rule="evenodd" d="M62.9997 15.958C60.1945 15.2256 57.2161 14.8315 54.1298 14.8315C37.4126 14.8315 23.8607 26.3941 23.8607 40.6574C23.8607 54.9207 37.4126 66.4833 54.1298 66.4833C56.1031 66.4833 58.0324 66.3222 59.9005 66.0145C55.6856 68.32 50.8489 69.6306 45.7061 69.6306C29.3468 69.6306 16.085 56.3688 16.085 40.0095C16.085 23.6502 29.3468 10.3884 45.7061 10.3884C52.161 10.3884 58.1336 12.453 62.9997 15.958Z" fill="#5F0467"/>
<path d="M65.47 54.27C63.79 54.27 62.29 53.96 60.97 53.34C59.65 52.7 58.62 51.82 57.88 50.7C57.16 49.56 56.8 48.27 56.8 46.83V40.11C56.8 38.67 57.16 37.39 57.88 36.27C58.62 35.15 59.64 34.28 60.94 33.66C62.24 33.04 63.73 32.73 65.41 32.73C67.09 32.73 68.58 33 69.88 33.54C71.18 34.06 72.19 34.79 72.91 35.73C73.65 36.67 74.02 37.75 74.02 38.97C74.02 39.57 73.82 40.04 73.42 40.38C73.02 40.72 72.49 40.89 71.83 40.89C71.69 40.89 71.48 40.87 71.2 40.83C71.24 40.59 71.26 40.21 71.26 39.69C71.26 38.83 71.01 38.06 70.51 37.38C70.03 36.7 69.34 36.17 68.44 35.79C67.56 35.41 66.55 35.22 65.41 35.22C64.29 35.22 63.29 35.43 62.41 35.85C61.53 36.25 60.84 36.83 60.34 37.59C59.86 38.33 59.62 39.17 59.62 40.11V46.83C59.62 47.79 59.86 48.65 60.34 49.41C60.84 50.15 61.53 50.73 62.41 51.15C63.31 51.57 64.33 51.78 65.47 51.78C66.63 51.78 67.66 51.59 68.56 51.21C69.46 50.83 70.16 50.31 70.66 49.65C71.16 48.97 71.41 48.19 71.41 47.31C71.41 46.99 71.39 46.61 71.35 46.17C71.63 46.13 71.83 46.11 71.95 46.11C72.61 46.11 73.14 46.3 73.54 46.68C73.96 47.06 74.17 47.57 74.17 48.21C74.17 49.39 73.8 50.44 73.06 51.36C72.32 52.28 71.29 53 69.97 53.52C68.67 54.02 67.17 54.27 65.47 54.27ZM82.5461 54.27C81.3261 54.27 80.2161 54.04 79.2161 53.58C78.2361 53.12 77.4661 52.5 76.9061 51.72C76.3661 50.92 76.0961 50.03 76.0961 49.05V44.13C76.0961 43.13 76.3661 42.22 76.9061 41.4C77.4661 40.58 78.2361 39.93 79.2161 39.45C80.1961 38.97 81.3061 38.73 82.5461 38.73C83.7861 38.73 84.8961 38.97 85.8761 39.45C86.8761 39.93 87.6461 40.58 88.1861 41.4C88.7461 42.22 89.0261 43.13 89.0261 44.13V49.05C89.0261 50.03 88.7461 50.92 88.1861 51.72C87.6261 52.5 86.8561 53.12 85.8761 53.58C84.8961 54.04 83.7861 54.27 82.5461 54.27ZM82.5461 52.02C83.7461 52.02 84.6961 51.74 85.3961 51.18C86.1161 50.6 86.4761 49.85 86.4761 48.93V44.22C86.4761 43.26 86.1161 42.48 85.3961 41.88C84.6961 41.28 83.7461 40.98 82.5461 40.98C81.3661 40.98 80.4161 41.28 79.6961 41.88C78.9761 42.48 78.6161 43.26 78.6161 44.22V48.93C78.6161 49.85 78.9661 50.6 79.6661 51.18C80.3861 51.74 81.3461 52.02 82.5461 52.02ZM97.5412 54.27C95.8212 54.27 94.4212 53.8 93.3412 52.86C92.2812 51.9 91.7512 50.63 91.7512 49.05V43.92C91.7512 42.9 92.0012 42 92.5012 41.22C93.0012 40.42 93.6912 39.81 94.5712 39.39C95.4712 38.95 96.5012 38.73 97.6612 38.73C98.6012 38.73 99.4712 38.93 100.271 39.33C101.071 39.71 101.771 40.22 102.371 40.86L102.461 40.71C102.321 40.51 102.111 40.29 101.831 40.05V34.77C101.831 34.11 102.051 33.61 102.491 33.27C102.931 32.91 103.591 32.73 104.471 32.73V52.14C104.471 52.8 104.271 53.32 103.871 53.7C103.491 54.08 102.871 54.27 102.011 54.27V52.59C102.291 52.23 102.481 51.97 102.581 51.81L102.491 51.69C101.851 52.49 101.141 53.12 100.361 53.58C99.5812 54.04 98.6412 54.27 97.5412 54.27ZM98.1112 51.96C99.1712 51.96 100.061 51.69 100.781 51.15C101.501 50.59 101.861 49.9 101.861 49.08V43.89C101.861 43.09 101.521 42.42 100.841 41.88C100.161 41.32 99.2412 41.04 98.0812 41.04C96.9012 41.04 95.9812 41.31 95.3212 41.85C94.6812 42.37 94.3612 43.1 94.3612 44.04V48.93C94.3612 49.91 94.6812 50.66 95.3212 51.18C95.9812 51.7 96.9112 51.96 98.1112 51.96ZM114.693 54.27C113.473 54.27 112.383 54.04 111.423 53.58C110.463 53.1 109.713 52.45 109.173 51.63C108.633 50.79 108.363 49.85 108.363 48.81V44.37C108.363 43.31 108.643 42.35 109.203 41.49C109.783 40.63 110.553 39.96 111.513 39.48C112.493 38.98 113.553 38.73 114.693 38.73C115.833 38.73 116.873 38.97 117.813 39.45C118.773 39.93 119.523 40.59 120.063 41.43C120.623 42.27 120.903 43.22 120.903 44.28V46.2C120.903 46.52 120.783 46.79 120.543 47.01C120.303 47.23 120.013 47.34 119.673 47.34H110.913V48.69C110.913 49.71 111.233 50.53 111.873 51.15C112.533 51.77 113.473 52.08 114.693 52.08C115.913 52.08 116.843 51.81 117.483 51.27C118.123 50.73 118.443 50 118.443 49.08C119.043 49.04 119.543 49.16 119.943 49.44C120.363 49.7 120.573 50.09 120.573 50.61C120.573 51.25 120.293 51.85 119.733 52.41C119.193 52.97 118.473 53.42 117.573 53.76C116.673 54.1 115.713 54.27 114.693 54.27ZM118.473 45.3V44.28C118.473 43.28 118.123 42.47 117.423 41.85C116.743 41.21 115.833 40.89 114.693 40.89C113.553 40.89 112.633 41.21 111.933 41.85C111.253 42.47 110.913 43.28 110.913 44.28V45.3H118.473ZM132.736 54.27C131.056 54.27 129.556 53.96 128.236 53.34C126.916 52.7 125.886 51.82 125.146 50.7C124.426 49.56 124.066 48.27 124.066 46.83V40.11C124.066 38.67 124.426 37.39 125.146 36.27C125.886 35.15 126.906 34.28 128.206 33.66C129.506 33.04 130.996 32.73 132.676 32.73C134.356 32.73 135.846 33 137.146 33.54C138.446 34.06 139.456 34.79 140.176 35.73C140.916 36.67 141.286 37.75 141.286 38.97C141.286 39.57 141.086 40.04 140.686 40.38C140.286 40.72 139.756 40.89 139.096 40.89C138.956 40.89 138.746 40.87 138.466 40.83C138.506 40.59 138.526 40.21 138.526 39.69C138.526 38.83 138.276 38.06 137.776 37.38C137.296 36.7 136.606 36.17 135.706 35.79C134.826 35.41 133.816 35.22 132.676 35.22C131.556 35.22 130.556 35.43 129.676 35.85C128.796 36.25 128.106 36.83 127.606 37.59C127.126 38.33 126.886 39.17 126.886 40.11V46.83C126.886 47.79 127.126 48.65 127.606 49.41C128.106 50.15 128.796 50.73 129.676 51.15C130.576 51.57 131.596 51.78 132.736 51.78C133.896 51.78 134.926 51.59 135.826 51.21C136.726 50.83 137.426 50.31 137.926 49.65C138.426 48.97 138.676 48.19 138.676 47.31C138.676 46.99 138.656 46.61 138.616 46.17C138.896 46.13 139.096 46.11 139.216 46.11C139.876 46.11 140.406 46.3 140.806 46.68C141.226 47.06 141.436 47.57 141.436 48.21C141.436 49.39 141.066 50.44 140.326 51.36C139.586 52.28 138.556 53 137.236 53.52C135.936 54.02 134.436 54.27 132.736 54.27ZM149.092 54.27C147.372 54.27 145.982 53.81 144.922 52.89C143.882 51.97 143.362 50.76 143.362 49.26C143.362 47.74 143.912 46.52 145.012 45.6C146.112 44.66 147.562 44.19 149.362 44.19C151.282 44.19 152.862 44.87 154.102 46.23L154.222 46.11C154.002 45.87 153.752 45.62 153.472 45.36V44.1C153.472 43.08 153.152 42.29 152.512 41.73C151.872 41.17 150.962 40.89 149.782 40.89C147.682 40.89 146.182 41.72 145.282 43.38C144.962 43.22 144.692 43.01 144.472 42.75C144.272 42.47 144.172 42.19 144.172 41.91C144.172 41.37 144.442 40.86 144.982 40.38C145.522 39.88 146.232 39.48 147.112 39.18C148.012 38.88 148.952 38.73 149.932 38.73C151.832 38.73 153.322 39.2 154.402 40.14C155.502 41.08 156.052 42.38 156.052 44.04V52.26C156.052 52.96 155.852 53.47 155.452 53.79C155.052 54.11 154.422 54.27 153.562 54.27V52.86C153.982 52.42 154.212 52.16 154.252 52.08L154.132 51.96C152.832 53.5 151.152 54.27 149.092 54.27ZM149.542 52.2C150.782 52.2 151.752 51.94 152.452 51.42C153.172 50.9 153.532 50.18 153.532 49.26C153.532 48.34 153.182 47.61 152.482 47.07C151.782 46.53 150.822 46.26 149.602 46.26C148.462 46.26 147.562 46.53 146.902 47.07C146.262 47.59 145.942 48.32 145.942 49.26C145.942 50.2 146.252 50.93 146.872 51.45C147.512 51.95 148.402 52.2 149.542 52.2ZM165.098 54.27C164.078 54.27 163.118 54.12 162.218 53.82C161.318 53.5 160.588 53.05 160.028 52.47C159.488 51.89 159.218 51.21 159.218 50.43C159.218 49.47 159.798 48.95 160.958 48.87C161.158 49.99 161.628 50.82 162.368 51.36C163.128 51.88 164.088 52.14 165.248 52.14C166.408 52.14 167.308 51.97 167.948 51.63C168.588 51.29 168.908 50.77 168.908 50.07C168.908 49.57 168.778 49.17 168.518 48.87C168.258 48.55 167.838 48.28 167.258 48.06C166.698 47.82 165.888 47.59 164.828 47.37C163.508 47.07 162.458 46.75 161.678 46.41C160.898 46.07 160.298 45.62 159.878 45.06C159.478 44.5 159.278 43.76 159.278 42.84C159.278 42.06 159.518 41.36 159.998 40.74C160.478 40.1 161.138 39.61 161.978 39.27C162.838 38.91 163.808 38.73 164.888 38.73C165.888 38.73 166.828 38.87 167.708 39.15C168.608 39.43 169.328 39.83 169.868 40.35C170.428 40.87 170.708 41.47 170.708 42.15C170.708 42.61 170.528 42.98 170.168 43.26C169.808 43.52 169.308 43.67 168.668 43.71C168.608 42.83 168.248 42.14 167.588 41.64C166.948 41.12 166.048 40.86 164.888 40.86C163.928 40.86 163.168 41.04 162.608 41.4C162.048 41.76 161.768 42.24 161.768 42.84C161.768 43.48 162.028 43.96 162.548 44.28C163.088 44.58 163.998 44.87 165.278 45.15C167.378 45.57 168.918 46.15 169.898 46.89C170.898 47.61 171.398 48.64 171.398 49.98C171.398 51.34 170.848 52.4 169.748 53.16C168.648 53.9 167.098 54.27 165.098 54.27ZM179.466 54.27C178.046 54.27 176.986 53.87 176.286 53.07C175.586 52.25 175.236 51.18 175.236 49.86V41.1H172.446C172.446 40.42 172.596 39.9 172.896 39.54C173.196 39.18 173.606 39 174.126 39H175.266V36.15C175.266 35.49 175.476 35.01 175.896 34.71C176.336 34.39 176.986 34.23 177.846 34.23V39H181.836C181.836 40.4 181.206 41.1 179.946 41.1H177.876V49.77C177.876 50.57 178.016 51.14 178.296 51.48C178.596 51.8 179.126 51.96 179.886 51.96C180.586 51.96 181.246 51.78 181.866 51.42C182.126 51.68 182.256 52.03 182.256 52.47C182.256 52.95 182.006 53.37 181.506 53.73C181.006 54.09 180.326 54.27 179.466 54.27Z" fill="white"/>
<defs>
<linearGradient id="paint0_linear_434_295" x1="21.2801" y1="15.5801" x2="31.4472" y2="79.4204" gradientUnits="userSpaceOnUse">
<stop stop-color="#7F058A"/>
<stop offset="1" stop-color="#B100C0"/>
</linearGradient>
</defs>
</svg>
